<?xml version="1.0" standalone="no"?>
<!DOCTYPE svg PUBLIC "-//W3C//DTD SVG 20010904//EN"
 "http://www.w3.org/TR/2001/REC-SVG-20010904/DTD/svg10.dtd">
<svg version="1.0" xmlns="http://www.w3.org/2000/svg"
 width="180.000000pt" height="180.000000pt" viewBox="0 0 180.000000 180.000000"
 preserveAspectRatio="xMidYMid meet">
<metadata>
Created by potrace 1.11, written by Peter Selinger 2001-2013
</metadata>
<g transform="translate(0.000000,180.000000) scale(0.100000,-0.100000)"
fill="#000000" stroke="none">
<path d="M578 1470 c-64 -19 -108 -62 -108 -105 0 -7 -9 -17 -20 -20 -24 -8
-17 -25 10 -25 21 0 40 -29 49 -73 l6 -28 54 33 c30 18 54 38 54 43 -1 6 -20
17 -44 25 -23 8 -44 20 -46 26 -4 12 53 28 68 19 4 -3 35 8 68 25 35 17 76 30
98 30 l38 0 -25 20 c-45 34 -140 49 -202 30z"/>
<path d="M1180 1429 c-19 -5 -106 -12 -192 -16 -87 -3 -158 -9 -158 -13 0 -13
37 -40 45 -33 4 5 5 2 1 -4 -4 -8 4 -23 21 -37 l28 -24 -47 5 c-46 5 -193 -21
-202 -36 -10 -15 22 -84 45 -97 42 -23 171 -76 294 -119 66 -24 158 -63 205
-88 47 -25 103 -49 125 -52 22 -4 92 -20 155 -36 132 -33 255 -59 276 -59 31
0 10 19 -53 47 -73 33 -161 63 -260 88 -44 11 -83 30 -130 66 -101 74 -115 88
-107 100 3 6 0 15 -7 20 -22 14 -33 10 -19 -6 16 -19 3 -20 -15 -1 -12 12 -12
15 0 20 8 3 21 3 28 1 9 -4 12 28 13 140 1 80 -1 145 -5 144 -3 -1 -22 -5 -41
-10z m-265 -77 c-3 -3 -11 0 -18 7 -9 10 -8 11 6 5 10 -3 15 -9 12 -12z m108
-41 c13 -2 -2 -20 -26 -31 -20 -10 -20 -10 -4 3 9 8 17 17 17 21 0 4 -8 5 -17
2 -10 -3 -24 -2 -32 3 -12 8 15 8 62 2z m11 -36 c-4 -8 -13 -15 -22 -15 -13 0
-12 3 4 15 24 18 25 18 18 0z m7 -42 c13 -16 12 -17 -3 -4 -10 7 -18 15 -18
17 0 8 8 3 21 -13z m39 -23 c0 -6 10 -15 23 -20 14 -6 16 -9 6 -9 -9 -1 -24 8
-34 19 -10 11 -13 20 -7 20 7 0 12 -5 12 -10z"/>
<path d="M376 1147 c-45 -107 -28 -197 39 -197 67 0 86 93 40 187 -41 81 -48
82 -79 10z"/>
<path d="M120 1093 c1 -57 95 -173 140 -173 12 0 32 7 45 16 62 40 4 131 -97
154 -29 6 -61 14 -70 17 -13 3 -18 -1 -18 -14z"/>
<path d="M520 996 l0 -98 -32 5 c-101 18 -151 20 -146 6 3 -10 29 -15 89 -19
l84 -5 13 -90 c22 -149 30 -185 43 -185 6 0 7 -4 4 -10 -7 -11 9 -13 43 -4 15
5 21 12 17 22 -4 12 -3 13 9 3 12 -10 26 -10 68 -1 29 7 159 16 288 20 180 5
246 11 281 23 45 16 51 16 150 -7 127 -30 171 -35 176 -19 3 7 -19 14 -64 18
-119 12 -207 33 -224 54 -9 11 -19 18 -22 15 -3 -3 -5 5 -4 18 0 13 -9 56 -19
95 -19 72 -19 73 -52 73 -30 0 -33 -2 -26 -22 4 -13 11 -26 16 -29 5 -3 2 -9
-7 -12 -9 -4 -13 -3 -10 3 3 6 2 10 -4 10 -6 0 -8 8 -5 18 4 13 1 11 -13 -5
-48 -58 -180 -76 -317 -42 -50 12 -108 30 -129 41 -21 10 -43 16 -49 12 -6 -4
-8 -3 -5 3 8 13 -17 36 -28 25 -5 -4 -5 -2 -2 4 3 6 -12 28 -35 50 -24 22 -38
31 -35 21 4 -10 3 -16 -2 -12 -6 3 -9 13 -9 23 0 9 -9 35 -21 57 l-21 39 0
-98z m27 -78 c-3 -8 -6 -5 -6 6 -1 11 2 17 5 13 3 -3 4 -12 1 -19z m47 14 c2
-4 -4 -8 -14 -8 -10 0 -16 4 -14 8 3 4 9 8 14 8 5 0 11 -4 14 -8z m623 -54
c-3 -8 -6 -5 -6 6 -1 11 2 17 5 13 3 -3 4 -12 1 -19z m-670 -30 c-3 -8 -6 -5
-6 6 -1 11 2 17 5 13 3 -3 4 -12 1 -19z m40 16 c-3 -3 -12 -4 -19 -1 -8 3 -5
6 6 6 11 1 17 -2 13 -5z m200 -50 c-3 -3 -12 -4 -19 -1 -8 3 -5 6 6 6 11 1 17
-2 13 -5z m70 -10 c-3 -3 -12 -4 -19 -1 -8 3 -5 6 6 6 11 1 17 -2 13 -5z m241
-1 c-16 -2 -28 -8 -28 -13 0 -4 -10 -5 -22 -2 -23 6 -23 6 2 13 14 4 36 7 50
7 23 -1 23 -1 -2 -5z m-171 -19 c-3 -3 -12 -4 -19 -1 -8 3 -5 6 6 6 11 1 17
-2 13 -5z m193 -4 c0 -5 -7 -10 -16 -10 -8 0 -12 5 -9 10 3 6 10 10 16 10 5 0
9 -4 9 -10z m-135 -50 c3 -5 -1 -10 -10 -10 -9 0 -13 5 -10 10 3 6 8 10 10 10
2 0 7 -4 10 -10z m75 -24 c0 -3 -4 -8 -10 -11 -5 -3 -10 -1 -10 4 0 6 5 11 10
11 6 0 10 -2 10 -4z m225 -26 c3 -6 -1 -7 -9 -4 -18 7 -21 14 -7 14 6 0 13 -4
16 -10z m-592 -27 c-7 -2 -19 -2 -25 0 -7 3 -2 5 12 5 14 0 19 -2 13 -5z m47
3 c0 -2 -7 -7 -16 -10 -8 -3 -12 -2 -9 4 6 10 25 14 25 6z m70 -6 c-8 -5 -19
-10 -25 -10 -5 0 -3 5 5 10 8 5 20 10 25 10 6 0 3 -5 -5 -10z m97 4 c-3 -3
-12 -4 -19 -1 -8 3 -5 6 6 6 11 1 17 -2 13 -5z"/>
<path d="M111 863 c-50 -26 -111 -87 -99 -99 3 -2 33 -9 67 -15 102 -16 174
15 174 77 -1 61 -64 78 -142 37z"/>
<path d="M322 833 c-49 -46 -78 -152 -53 -191 11 -19 114 49 141 93 35 57 22
108 -31 120 -21 5 -34 0 -57 -22z"/>
<path d="M47 564 c-4 -4 -7 -66 -7 -137 l0 -129 27 7 c15 3 31 12 35 18 16 24
20 78 9 105 -9 20 -9 36 -1 56 7 21 7 35 -2 54 -13 26 -46 40 -61 26z m43 -60
c0 -19 -4 -34 -10 -34 -5 0 -10 18 -10 41 0 24 4 38 10 34 6 -3 10 -22 10 -41z
m0 -106 c0 -42 -13 -78 -22 -62 -8 15 3 104 13 104 5 0 9 -19 9 -42z"/>
<path d="M310 430 c0 -118 2 -140 15 -140 11 0 15 13 16 53 l1 52 15 -49 c11
-34 18 -45 26 -37 7 7 5 26 -9 66 -18 54 -18 58 -1 87 11 20 14 35 8 41 -6 6
-15 -1 -25 -19 l-15 -29 -1 58 c0 44 -3 57 -15 57 -13 0 -15 -22 -15 -140z"/>
<path d="M720 436 c0 -84 4 -136 10 -136 6 0 10 38 10 93 1 89 1 91 15 58 8
-18 15 -60 15 -93 0 -43 3 -59 13 -56 8 3 13 42 15 137 2 104 0 132 -10 129
-7 -3 -15 -24 -18 -49 l-5 -44 -13 42 c-24 79 -32 59 -32 -81z"/>
<path d="M1329 557 c-39 -30 -58 -125 -40 -195 11 -41 42 -69 61 -57 15 9 12
25 -5 25 -23 0 -35 34 -35 98 0 47 5 67 25 96 14 20 25 39 25 41 0 9 -15 5
-31 -8z"/>
<path d="M913 503 c-8 -17 -9 -30 -3 -38 5 -6 7 -34 3 -62 -7 -61 2 -103 22
-103 18 0 32 23 17 28 -8 2 -12 28 -12 72 0 59 2 68 20 73 18 5 20 0 20 -53 0
-76 12 -106 44 -112 l26 -5 0 98 c0 73 -3 99 -13 99 -9 0 -11 -20 -9 -80 3
-52 0 -80 -7 -80 -6 0 -11 32 -13 78 l-3 77 -30 0 c-20 0 -31 5 -33 18 -5 24
-15 21 -29 -10z"/>
<path d="M1560 512 c0 -10 -5 -23 -12 -30 -9 -9 -9 -12 0 -12 9 0 12 -20 10
-75 -3 -77 7 -103 36 -92 20 8 21 27 1 27 -12 0 -15 14 -15 69 0 61 2 69 21
74 12 3 18 10 14 16 -3 6 -11 9 -16 5 -6 -3 -13 3 -16 15 -7 26 -23 28 -23 3z"/>
<path d="M142 405 c3 -108 21 -133 26 -36 2 36 10 74 19 87 9 14 13 28 9 32
-4 3 -11 1 -15 -7 -7 -10 -10 -9 -14 3 -4 9 -11 16 -17 16 -7 0 -10 -33 -8
-95z"/>
<path d="M220 421 c0 -99 5 -111 41 -111 l29 0 0 95 c0 78 -3 95 -15 95 -12 0
-15 -16 -15 -81 0 -51 -4 -78 -10 -74 -5 3 -10 40 -10 81 0 43 -4 74 -10 74
-6 0 -10 -33 -10 -79z"/>
<path d="M410 497 c0 -1 -1 -44 -3 -95 -1 -68 1 -92 11 -92 8 0 12 23 12 80 0
44 4 80 9 80 15 0 23 -57 16 -110 -6 -42 -4 -50 9 -50 15 0 16 12 14 93 l-3
92 -32 2 c-18 1 -33 1 -33 0z"/>
<path d="M511 469 c-27 -79 -1 -182 42 -166 22 8 21 24 -2 30 -34 8 -34 87 0
87 13 0 19 7 19 24 0 62 -40 79 -59 25z m39 -14 c0 -8 -4 -15 -10 -15 -5 0
-10 7 -10 15 0 8 5 15 10 15 6 0 10 -7 10 -15z"/>
<path d="M589 493 c-4 -45 4 -180 12 -187 5 -6 9 16 9 59 0 57 4 73 22 92 23
25 18 44 -7 23 -12 -10 -15 -10 -15 4 0 15 -19 24 -21 9z"/>
<path d="M833 493 c-20 -8 -15 -23 7 -23 27 0 27 -36 -1 -50 -16 -9 -20 -19
-17 -57 3 -41 6 -48 30 -54 15 -4 29 -4 32 -1 8 7 6 131 -3 162 -7 25 -25 33
-48 23z m27 -123 c0 -16 -4 -30 -10 -30 -11 0 -14 43 -3 53 11 12 13 8 13 -23z"/>
<path d="M1079 493 c-1 -5 0 -46 1 -93 2 -104 20 -135 20 -35 0 57 4 73 22 92
23 25 18 44 -7 23 -12 -10 -15 -10 -15 4 0 16 -19 23 -21 9z"/>
<path d="M1162 475 c-20 -43 -15 -132 8 -155 11 -11 26 -17 35 -14 13 5 11 11
-10 30 -33 31 -32 77 3 82 16 2 22 10 22 27 0 57 -37 76 -58 30z m38 -20 c0
-8 -4 -15 -10 -15 -5 0 -10 7 -10 15 0 8 5 15 10 15 6 0 10 -7 10 -15z"/>
<path d="M1389 484 c-7 -9 -15 -44 -17 -78 -3 -50 0 -66 15 -85 13 -16 26 -22
36 -18 23 8 21 24 -2 30 -11 3 -20 16 -23 34 -6 40 0 53 23 53 13 0 19 7 19
24 0 53 -24 72 -51 40z m31 -29 c0 -8 -4 -15 -10 -15 -5 0 -10 7 -10 15 0 8 5
15 10 15 6 0 10 -7 10 -15z"/>
<path d="M1460 497 c-1 -1 -2 -44 -4 -94 -2 -73 0 -93 11 -93 10 0 13 20 13
80 0 46 4 80 10 80 15 0 23 -47 17 -106 -4 -43 -3 -54 9 -54 12 0 14 17 12 93
l-3 92 -32 2 c-18 1 -33 1 -33 0z"/>
<path d="M1639 484 c-7 -9 -15 -44 -17 -78 -3 -50 0 -66 15 -85 13 -16 26 -22
36 -18 23 9 21 24 -3 30 -16 4 -20 14 -20 46 0 34 3 41 20 41 14 0 20 7 20 24
0 53 -24 72 -51 40z m31 -29 c0 -8 -4 -15 -10 -15 -5 0 -10 7 -10 15 0 8 5 15
10 15 6 0 10 -7 10 -15z"/>
<path d="M1709 493 c-4 -45 4 -180 12 -187 5 -6 9 16 9 59 0 57 4 73 22 92 23
25 18 44 -7 23 -12 -10 -15 -10 -15 4 0 15 -19 24 -21 9z"/>
</g>
</svg>
