<?xml version="1.0" standalone="no"?>
<!DOCTYPE svg PUBLIC "-//W3C//DTD SVG 20010904//EN"
 "http://www.w3.org/TR/2001/REC-SVG-20010904/DTD/svg10.dtd">
<svg version="1.0" xmlns="http://www.w3.org/2000/svg"
 width="180.000000pt" height="180.000000pt" viewBox="0 0 180.000000 180.000000"
 preserveAspectRatio="xMidYMid meet">
<metadata>
Created by potrace 1.16, written by Peter Selinger 2001-2019
</metadata>
<g transform="translate(0.000000,180.000000) scale(0.100000,-0.100000)"
fill="#000000" stroke="none">
<path fill="#fff" d="M578 1470 c-64 -19 -108 -62 -108 -105 0 -7 -9 -17 -20 -20 -24 -8
-17 -25 10 -25 21 0 40 -29 49 -73 l6 -28 54 33 c30 18 54 38 54 43 -1 6 -20
17 -44 25 -23 8 -44 20 -46 26 -4 12 53 28 68 19 4 -3 35 8 68 25 35 17 76 30
98 30 l38 0 -25 20 c-45 34 -140 49 -202 30z"/>
<path fill="#fff" d="M1185 1429 c-16 -5 -103 -12 -192 -16 -90 -3 -163 -9 -163 -13 0 -9
82 -90 92 -90 15 0 -13 42 -31 47 -9 2 -22 12 -28 22 -11 18 -10 18 27 0 21
-10 41 -28 45 -39 3 -11 11 -20 16 -20 6 0 7 5 4 10 -9 14 4 52 16 45 5 -4 9
0 9 7 0 9 3 9 10 -2 9 -13 10 -13 10 0 0 13 1 13 10 0 9 -13 10 -13 10 0 0 13
1 13 10 0 9 -13 10 -13 10 0 0 13 1 13 10 0 9 -13 10 -13 10 0 0 12 2 13 9 1
7 -11 9 -11 14 0 4 11 6 11 6 1 1 -10 5 -10 17 2 18 18 79 21 90 5 4 -8 9 -7
16 2 5 9 6 3 2 -16 -11 -46 -10 -218 1 -222 6 -2 10 50 11 142 1 80 -2 145 -5
144 -3 0 -19 -5 -36 -10z m-235 -50 c0 -5 -4 -9 -10 -9 -5 0 -10 7 -10 16 0 8
5 12 10 9 6 -3 10 -10 10 -16z"/>
<path fill="#fff" d="M957 1312 c-9 -2 -15 -7 -13 -11 3 -4 -18 -3 -45 3 -40 8 -68 7 -131
-6 -45 -10 -85 -21 -89 -25 -14 -14 17 -85 42 -99 42 -23 171 -76 294 -119 66
-24 158 -63 205 -88 47 -25 103 -49 125 -52 22 -4 92 -20 155 -36 132 -33 255
-59 276 -59 31 0 10 19 -53 47 -73 33 -161 63 -260 88 -44 11 -83 30 -130 66
-101 75 -113 86 -107 102 5 15 -51 45 -63 33 -3 -3 1 -6 9 -6 9 0 21 -7 28
-15 17 -20 7 -19 -32 5 -18 11 -27 20 -20 20 8 0 12 21 12 74 0 79 -5 86 -56
86 -22 0 -24 -3 -18 -22 3 -13 13 -27 20 -31 17 -10 19 -37 3 -37 -8 0 -7 -6
2 -17 11 -15 11 -16 -1 -5 -19 16 -31 15 -24 -2 3 -8 13 -17 22 -19 15 -4 15
-5 1 -6 -9 0 -24 8 -33 18 -17 18 -16 20 4 26 17 5 19 10 9 21 -6 7 -15 11
-20 9 -4 -3 -17 4 -28 16 -16 17 -23 19 -38 9 -16 -10 -16 -11 5 -7 12 3 23 1
23 -4 1 -5 3 -13 4 -19 1 -5 3 -12 4 -15 0 -3 11 -1 24 5 21 10 21 10 3 -4
-17 -14 -21 -12 -52 12 -19 15 -34 29 -34 32 0 12 42 30 53 24 7 -4 8 -3 4 2
-9 9 -51 13 -80 6z"/>
<path fill="#fff" d="M382 1164 c-12 -24 -27 -65 -32 -89 -20 -88 35 -150 99 -114 22 12
26 23 29 66 3 56 -25 138 -57 167 -16 14 -19 12 -39 -30z"/>
<path fill="#fff" d="M120 1090 c0 -56 96 -170 143 -170 37 0 67 27 67 62 0 39 -53 93
-106 106 -96 25 -104 25 -104 2z"/>
<path fill="#fff" d="M520 996 l0 -98 -32 5 c-101 18 -151 20 -146 6 3 -10 28 -15 87 -17
53 -2 83 -7 86 -15 3 -7 9 -46 15 -87 15 -108 16 -112 24 -147 5 -21 14 -33
24 -33 15 0 15 -2 2 -11 -11 -8 -6 -9 20 -5 19 4 36 11 38 16 2 5 9 7 17 4 7
-3 30 0 52 6 21 6 148 15 283 19 187 6 256 12 290 24 43 16 50 16 155 -8 135
-29 167 -33 172 -19 2 7 -31 15 -91 22 -139 17 -195 32 -202 54 -3 10 -10 16
-15 13 -5 -4 -8 2 -7 12 4 34 -14 93 -28 93 -8 0 -14 4 -14 9 0 5 -3 18 -6 28
-3 11 1 8 11 -7 10 -15 14 -18 11 -7 -3 10 -6 27 -6 38 0 15 -7 19 -34 19 -30
0 -33 -3 -32 -29 1 -32 16 -32 16 0 0 10 4 19 9 19 12 0 1 -43 -13 -52 -16
-11 -27 2 -21 25 6 21 6 21 -9 3 -9 -10 -13 -23 -9 -29 3 -6 1 -7 -5 -3 -6 4
-24 0 -40 -8 -54 -28 -165 -30 -266 -5 -50 12 -108 30 -129 41 -21 10 -43 16
-49 12 -6 -4 -8 -3 -5 3 8 13 -17 36 -28 25 -5 -4 -6 -2 -2 3 3 6 -15 31 -40
55 -25 25 -54 63 -64 85 l-19 40 0 -99z m24 18 c3 -8 2 -12 -4 -9 -6 3 -10 10
-10 16 0 14 7 11 14 -7z m53 -54 l32 -35 -34 -1 c-19 0 -32 3 -29 8 3 4 1 8
-5 8 -5 0 -12 -8 -14 -17 -3 -10 -5 1 -6 25 -1 27 3 41 9 37 6 -3 10 -1 10 6
0 7 1 10 3 8 1 -2 16 -20 34 -39z m40 -66 c-3 -3 -12 -4 -19 -1 -8 3 -5 6 6 6
11 1 17 -2 13 -5z m-55 -31 c-18 -2 -30 -9 -27 -14 4 -5 1 -9 -4 -9 -6 0 -11
7 -11 15 0 11 10 15 38 13 37 -1 37 -1 4 -5z m146 -49 c11 -11 12 -18 3 -27
-15 -15 -14 -27 4 -27 8 0 15 4 15 9 0 13 36 20 63 13 19 -6 18 -8 -13 -13
-19 -4 -10 -4 20 -2 30 3 71 5 90 5 l35 0 -30 8 c-28 7 -28 8 -5 9 14 0 32 -4
40 -9 11 -7 11 -10 2 -10 -7 0 -11 -4 -8 -8 6 -10 -8 -12 -89 -15 -47 -2 -60
-6 -63 -19 -5 -24 34 -43 52 -25 8 8 27 13 43 11 15 -1 38 -2 51 -3 12 -1 22
-7 22 -16 0 -16 -12 -18 -117 -18 -37 0 -60 -4 -56 -10 3 -5 -6 -7 -24 -3 -17
4 -53 9 -82 10 -48 4 -86 16 -48 16 12 0 17 9 17 30 0 34 -21 40 -47 15 -23
-23 -37 -13 -44 31 l-6 39 -3 -35 c-2 -29 -4 -31 -7 -9 -2 14 1 38 7 53 l11
29 76 -7 c46 -4 81 -13 91 -22z m62 6 c24 -8 24 -8 -7 -9 -17 -1 -35 4 -38 9
-7 11 9 11 45 0z m454 -16 c19 -10 37 -25 39 -35 5 -17 3 -17 -29 -1 -19 8
-34 22 -34 29 0 8 -4 11 -10 8 -5 -3 -10 -1 -10 4 0 14 3 14 44 -5z m-383 -3
c-11 -7 -10 -10 5 -14 14 -3 12 -5 -7 -6 -16 -1 -29 5 -33 14 -4 11 2 15 22
15 19 0 23 -3 13 -9z m252 2 c-7 -2 -21 -2 -30 0 -10 3 -4 5 12 5 17 0 24 -2
18 -5z m-106 -39 c-3 -3 -12 -4 -19 -1 -8 3 -5 6 6 6 11 1 17 -2 13 -5z m228
-3 c18 -7 17 -8 -6 -14 -14 -4 -38 -2 -54 3 -27 9 -26 9 10 5 29 -4 36 -3 25
4 -17 12 -4 13 25 2z m-195 -31 c0 -5 -2 -10 -4 -10 -3 0 -8 5 -11 10 -3 6 -1
10 4 10 6 0 11 -4 11 -10z m77 -2 c7 -1 9 -6 6 -11 -3 -5 1 -13 8 -18 11 -7
10 -9 -4 -9 -22 0 -67 28 -67 42 0 6 10 7 23 3 12 -3 27 -7 34 -7z m-53 -27
c7 -10 -52 -26 -61 -17 -4 3 3 6 15 6 12 0 22 5 22 10 0 13 17 13 24 1z m172
-9 c-10 -2 -22 0 -28 6 -6 6 0 7 19 4 21 -5 23 -7 9 -10z m-37 -6 c-2 -2 -22
-6 -44 -9 -28 -5 -34 -4 -20 3 19 8 73 14 64 6z m86 -6 c3 -6 -1 -7 -9 -4 -18
7 -21 14 -7 14 6 0 13 -4 16 -10z m-48 -11 c-26 -15 -148 -22 -177 -11 -19 8
-11 10 40 6 36 -3 79 -1 95 5 42 13 65 13 42 0z m-492 -9 c15 -1 13 -4 -8 -10
-15 -5 -40 -5 -56 0 -15 4 -40 6 -55 3 -16 -3 -26 -1 -26 6 0 8 20 10 63 7 34
-3 71 -6 82 -6z m183 -2 c-20 -5 -43 -6 -52 -1 -9 5 4 8 37 9 51 1 52 1 15 -8z
m-118 -8 c-8 -5 -22 -9 -30 -9 -10 0 -8 3 5 9 27 12 43 12 25 0z m-150 -21
c-37 -11 -52 -10 -45 1 4 6 11 8 16 5 5 -4 9 -2 9 3 0 6 10 7 23 4 22 -6 22
-6 -3 -13z"/>
<path fill="#fff" d="M560 972 c0 -5 10 -17 21 -28 22 -19 22 -19 10 3 -12 24 -31 39 -31
25z"/>
<path fill="#fff" d="M112 864 c-28 -14 -65 -43 -82 -64 l-31 -39 38 -8 c60 -12 148 -9
176 6 51 27 55 95 7 121 -29 15 -52 12 -108 -16z"/>
<path fill="#fff" d="M323 845 c-43 -30 -83 -192 -52 -210 16 -10 117 61 139 98 25 41 25
82 0 107 -24 24 -57 26 -87 5z"/>
<path fill="#fff" d="M47 564 c-4 -4 -7 -66 -7 -137 l0 -129 27 7 c15 3 31 12 35 18 16 24
20 78 9 105 -9 20 -9 36 -1 56 7 21 7 35 -2 54 -13 26 -46 40 -61 26z m43 -60
c0 -19 -4 -34 -10 -34 -5 0 -10 18 -10 41 0 24 4 38 10 34 6 -3 10 -22 10 -41z
m0 -106 c0 -42 -13 -78 -22 -62 -8 15 3 104 13 104 5 0 9 -19 9 -42z"/>
<path fill="#fff" d="M310 430 c0 -118 2 -140 15 -140 11 0 15 13 16 53 l1 52 15 -49 c11
-34 18 -45 26 -37 7 7 5 26 -9 66 -18 54 -18 58 -1 87 11 20 14 35 8 41 -6 6
-15 -1 -25 -19 l-15 -29 -1 58 c0 44 -3 57 -15 57 -13 0 -15 -22 -15 -140z"/>
<path fill="#fff" d="M720 436 c0 -84 4 -136 10 -136 6 0 10 38 10 93 1 89 1 91 15 58 8
-18 15 -60 15 -93 0 -43 3 -59 13 -56 8 3 13 42 15 137 2 104 0 132 -10 129
-7 -3 -15 -24 -18 -49 l-5 -44 -13 42 c-24 79 -32 59 -32 -81z"/>
<path fill="#fff" d="M1329 557 c-39 -30 -58 -125 -40 -195 11 -41 42 -69 61 -57 15 9 12
25 -5 25 -23 0 -35 34 -35 98 0 47 5 67 25 96 14 20 25 39 25 41 0 9 -15 5
-31 -8z"/>
<path fill="#fff" d="M913 503 c-8 -17 -9 -30 -3 -38 5 -6 7 -34 3 -62 -7 -61 2 -103 22
-103 18 0 32 23 17 28 -8 2 -12 28 -12 72 0 59 2 68 20 73 18 5 20 0 20 -53 0
-76 12 -106 44 -112 l26 -5 0 98 c0 73 -3 99 -13 99 -9 0 -11 -20 -9 -80 3
-52 0 -80 -7 -80 -6 0 -11 32 -13 78 l-3 77 -30 0 c-20 0 -31 5 -33 18 -5 24
-15 21 -29 -10z"/>
<path fill="#fff" d="M1560 512 c0 -10 -5 -23 -12 -30 -9 -9 -9 -12 0 -12 9 0 12 -20 10
-75 -3 -77 7 -103 36 -92 20 8 21 27 1 27 -12 0 -15 14 -15 69 0 61 2 69 21
74 12 3 18 10 14 16 -3 6 -11 9 -16 5 -6 -3 -13 3 -16 15 -7 26 -23 28 -23 3z"/>
<path fill="#fff" d="M142 405 c3 -108 21 -133 26 -36 2 36 10 74 19 87 9 14 13 28 9 32
-4 3 -11 1 -15 -7 -7 -10 -10 -9 -14 3 -4 9 -11 16 -17 16 -7 0 -10 -33 -8
-95z"/>
<path fill="#fff" d="M220 421 c0 -99 5 -111 41 -111 l29 0 0 95 c0 78 -3 95 -15 95 -12 0
-15 -16 -15 -81 0 -51 -4 -78 -10 -74 -5 3 -10 40 -10 81 0 43 -4 74 -10 74
-6 0 -10 -33 -10 -79z"/>
<path fill="#fff" d="M410 497 c0 -1 -1 -44 -3 -95 -1 -68 1 -92 11 -92 8 0 12 23 12 80 0
44 4 80 9 80 15 0 23 -57 16 -110 -6 -42 -4 -50 9 -50 15 0 16 12 14 93 l-3
92 -32 2 c-18 1 -33 1 -33 0z"/>
<path fill="#fff" d="M511 469 c-27 -79 -1 -182 42 -166 22 8 21 24 -2 30 -34 8 -34 87 0
87 13 0 19 7 19 24 0 62 -40 79 -59 25z m39 -14 c0 -8 -4 -15 -10 -15 -5 0
-10 7 -10 15 0 8 5 15 10 15 6 0 10 -7 10 -15z"/>
<path fill="#fff" d="M589 493 c-4 -45 4 -180 12 -187 5 -6 9 16 9 59 0 57 4 73 22 92 23
25 18 44 -7 23 -12 -10 -15 -10 -15 4 0 15 -19 24 -21 9z"/>
<path fill="#fff" d="M833 493 c-20 -8 -15 -23 7 -23 27 0 27 -36 -1 -50 -16 -9 -20 -19
-17 -57 3 -41 6 -48 30 -54 15 -4 29 -4 32 -1 8 7 6 131 -3 162 -7 25 -25 33
-48 23z m27 -123 c0 -16 -4 -30 -10 -30 -11 0 -14 43 -3 53 11 12 13 8 13 -23z"/>
<path fill="#fff" d="M1079 493 c-1 -5 0 -46 1 -93 2 -104 20 -135 20 -35 0 57 4 73 22 92
23 25 18 44 -7 23 -12 -10 -15 -10 -15 4 0 16 -19 23 -21 9z"/>
<path fill="#fff" d="M1162 475 c-20 -43 -15 -132 8 -155 11 -11 26 -17 35 -14 13 5 11 11
-10 30 -33 31 -32 77 3 82 16 2 22 10 22 27 0 57 -37 76 -58 30z m38 -20 c0
-8 -4 -15 -10 -15 -5 0 -10 7 -10 15 0 8 5 15 10 15 6 0 10 -7 10 -15z"/>
<path fill="#fff" d="M1389 484 c-7 -9 -15 -44 -17 -78 -3 -50 0 -66 15 -85 13 -16 26 -22
36 -18 23 8 21 24 -2 30 -11 3 -20 16 -23 34 -6 40 0 53 23 53 13 0 19 7 19
24 0 53 -24 72 -51 40z m31 -29 c0 -8 -4 -15 -10 -15 -5 0 -10 7 -10 15 0 8 5
15 10 15 6 0 10 -7 10 -15z"/>
<path fill="#fff" d="M1460 497 c-1 -1 -2 -44 -4 -94 -2 -73 0 -93 11 -93 10 0 13 20 13
80 0 46 4 80 10 80 15 0 23 -47 17 -106 -4 -43 -3 -54 9 -54 12 0 14 17 12 93
l-3 92 -32 2 c-18 1 -33 1 -33 0z"/>
<path fill="#fff" d="M1639 484 c-7 -9 -15 -44 -17 -78 -3 -50 0 -66 15 -85 13 -16 26 -22
36 -18 23 9 21 24 -3 30 -16 4 -20 14 -20 46 0 34 3 41 20 41 14 0 20 7 20 24
0 53 -24 72 -51 40z m31 -29 c0 -8 -4 -15 -10 -15 -5 0 -10 7 -10 15 0 8 5 15
10 15 6 0 10 -7 10 -15z"/>
<path fill="#fff" d="M1709 493 c-4 -45 4 -180 12 -187 5 -6 9 16 9 59 0 57 4 73 22 92 23
25 18 44 -7 23 -12 -10 -15 -10 -15 4 0 15 -19 24 -21 9z"/>
</g>
</svg>
